<?xml version="1.0" encoding="UTF-8"?>
<svg xmlns="http://www.w3.org/2000/svg" viewBox="0 0 317 317" width="317" height="317">
<path d="M182.75 205.5C184.05 226.65 180.21 243.14 168.19 260.42C164.47 265.76 158.42 273.85 151.25 273.99C147.3 274.07 142.13 270.64 141.06 266.73C140.3 263.95 140.86 261.07 140.91 258.25C141.1 246.36 141.11 235.19 136.18 224.12C134.91 221.26 134 217.06 131.25 215.35C124.21 221.19 114.42 226.94 105.25 228.09C99.79 228.77 93.87 225.76 93.73 219.66C93.54 211.7 98.43 203.21 102.32 196.59C103.63 194.36 105.74 192.58 106.77 190.25C97.57 183.3 84.06 180.86 72.75 180.59C67.63 180.46 62.49 181.69 57.36 181.29C52.32 180.9 48.11 175.71 48.05 170.75C47.97 163.7 56.31 157.51 61.49 153.75C72.24 145.95 84.44 140.61 97.75 138.94C101.1 138.53 104.89 138.14 108.25 138.21C111.22 138.27 114.06 139.11 117.04 138.75C125.13 130.07 131.25 119.5 140.13 111.36C163.22 90.22 187.31 75.53 217.06 65.75C227.07 62.45 237.68 59.83 248.25 58.88C252.86 58.47 257.07 57.06 260.73 61.01C264.6 65.19 263.39 68.7 263.11 73.75C262.51 84.35 259.36 95.34 256.2 105.37C247.08 134.28 231.2 159.42 210.64 181.87C206.65 186.23 197.72 194.51 192.89 197.63C189.44 199.87 185.57 202.41 182.75 205.5ZM182 197.25C184.84 194.41 188.42 192.27 191.51 189.75C196.53 185.66 201.32 181.2 205.94 176.68C226.64 156.41 241.92 129.41 250.02 102.25C252.68 93.34 254.91 84.19 256.01 74.77C256.31 72.12 258.61 66.74 254.95 65.32C252.51 64.37 249.66 65.7 247.23 65.99C240.67 66.78 234.59 68.26 228.24 69.83C196.8 77.65 167.4 94.03 144.37 117.11C138.68 122.82 132.97 128.98 128.25 135.5C126.09 138.49 123.18 144.51 119.48 145.74C117.33 146.46 106.39 144.93 102.76 145.19C88.02 146.21 74.06 152.2 62.87 161.63C60.46 163.66 55.67 166.37 55.13 169.77C53.94 177.2 64.85 173.9 68.75 173.92C84.37 174.02 101.13 176.54 113.91 186.36C117.98 189.49 113.33 193.31 111.24 195.96C107.19 201.11 99.01 214.25 101.25 220.82C106.08 222.74 120.96 215.54 124.63 211.89C126.93 209.61 131.77 204.73 134.94 207.33C137.43 209.37 139 213.59 140.35 216.41C145.57 227.37 148.21 238.5 148.08 250.75C148.04 254.56 145.29 266.43 150.75 266.91C155.34 267.31 161.7 257.81 164.17 254.4C175.3 239.03 180.04 218.44 174.66 199.63C172.34 191.56 168.82 183.23 163.85 176.4C161.77 173.56 158.98 171.14 156.89 168.33C155.28 166.16 156.09 162.53 159.24 162.56C162.08 162.59 163.79 165.99 165.39 167.85C170.57 173.89 174.89 180.48 177.95 187.77C178.96 190.2 179.42 196.21 182 197.25ZM196.36 104.71C223.65 103.15 224.52 144.78 197.23 144.93C172.02 145.06 170.06 106.21 196.36 104.71ZM195.88 111.21C178.22 113.32 181.74 140.72 199.67 137.8C216.57 135.05 212.55 109.21 195.88 111.21ZM85.77 198.06C89.02 196.95 91.49 200.3 89.87 203.14C88.34 205.83 85.23 208.12 83.03 210.29C77.51 215.76 72.02 221.27 66.55 226.79C64.52 228.84 60.74 234.1 57.38 231.87C53.18 229.08 58.39 225.23 60.4 223.17C66.42 217.02 72.66 211.09 78.67 204.94C80.47 203.09 83.36 198.88 85.77 198.06ZM122.11 231.25C125.24 234.93 121.09 237.85 118.6 240.35C111.94 247.03 105.25 253.67 98.6 260.35C96.67 262.28 92.05 268.28 89.35 263.92C87.19 260.42 92.63 256.71 94.82 254.59C100.9 248.68 106.73 242.5 112.82 236.59C115.6 233.89 117.8 230.06 122.11 231.25ZM86.35 231.6C89.37 230.92 91.36 234.02 89.94 236.67C88.92 238.57 79.52 248.14 77.65 248.91C76.7 249.3 75.32 249.31 74.39 248.85C72.87 248.12 72.3 245.76 73.08 244.35C74.17 242.36 84.47 232.02 86.35 231.6Z" fill="#bf465e" fill-rule="evenodd" stroke="#bf465e" stroke-width="0.25" stroke-linejoin="round"/>
</svg>